<svg aria-roledescription="er" viewBox="0 0 468.6712646484375 218" style="max-width: 468.671px; background-color: white;" xmlns:xlink="http://www.w3.org/1999/xlink" xmlns="http://www.w3.org/2000/svg" width="100%" id="mermaid-0"><style>#mermaid-0{font-family:"trebuchet ms",verdana,arial,sans-serif;font-size:16px;fill:#000000;}#mermaid-0 .error-icon{fill:#552222;}#mermaid-0 .error-text{fill:#552222;stroke:#552222;}#mermaid-0 .edge-thickness-normal{stroke-width:2px;}#mermaid-0 .edge-thickness-thick{stroke-width:3.5px;}#mermaid-0 .edge-pattern-solid{stroke-dasharray:0;}#mermaid-0 .edge-pattern-dashed{stroke-dasharray:3;}#mermaid-0 .edge-pattern-dotted{stroke-dasharray:2;}#mermaid-0 .marker{fill:#000000;stroke:#000000;}#mermaid-0 .marker.cross{stroke:#000000;}#mermaid-0 svg{font-family:"trebuchet ms",verdana,arial,sans-serif;font-size:16px;}#mermaid-0 .entityBox{fill:#cde498;stroke:#13540c;}#mermaid-0 .attributeBoxOdd{fill:#ffffff;stroke:#13540c;}#mermaid-0 .attributeBoxEven{fill:#f2f2f2;stroke:#13540c;}#mermaid-0 .relationshipLabelBox{fill:hsl(78.1578947368, 58.4615384615%, 84.5098039216%);opacity:0.7;background-color:hsl(78.1578947368, 58.4615384615%, 84.5098039216%);}#mermaid-0 .relationshipLabelBox rect{opacity:0.5;}#mermaid-0 .relationshipLine{stroke:#000000;}#mermaid-0 .entityTitleText{text-anchor:middle;font-size:18px;fill:#000000;}#mermaid-0 :root{--mermaid-font-family:"trebuchet ms",verdana,arial,sans-serif;}</style><g/><defs><marker orient="auto" markerHeight="18" markerWidth="18" refY="9" refX="0" id="ONLY_ONE_START"><path d="M9,0 L9,18 M15,0 L15,18" fill="none" stroke="gray"/></marker></defs><defs><marker orient="auto" markerHeight="18" markerWidth="18" refY="9" refX="18" id="ONLY_ONE_END"><path d="M3,0 L3,18 M9,0 L9,18" fill="none" stroke="gray"/></marker></defs><defs><marker orient="auto" markerHeight="18" markerWidth="30" refY="9" refX="0" id="ZERO_OR_ONE_START"><circle r="6" cy="9" cx="21" fill="white" stroke="gray"/><path d="M9,0 L9,18" fill="none" stroke="gray"/></marker></defs><defs><marker orient="auto" markerHeight="18" markerWidth="30" refY="9" refX="30" id="ZERO_OR_ONE_END"><circle r="6" cy="9" cx="9" fill="white" stroke="gray"/><path d="M21,0 L21,18" fill="none" stroke="gray"/></marker></defs><defs><marker orient="auto" markerHeight="36" markerWidth="45" refY="18" refX="18" id="ONE_OR_MORE_START"><path d="M0,18 Q 18,0 36,18 Q 18,36 0,18 M42,9 L42,27" fill="none" stroke="gray"/></marker></defs><defs><marker orient="auto" markerHeight="36" markerWidth="45" refY="18" refX="27" id="ONE_OR_MORE_END"><path d="M3,9 L3,27 M9,18 Q27,0 45,18 Q27,36 9,18" fill="none" stroke="gray"/></marker></defs><defs><marker orient="auto" markerHeight="36" markerWidth="57" refY="18" refX="18" id="ZERO_OR_MORE_START"><circle r="6" cy="18" cx="48" fill="white" stroke="gray"/><path d="M0,18 Q18,0 36,18 Q18,36 0,18" fill="none" stroke="gray"/></marker></defs><defs><marker orient="auto" markerHeight="36" markerWidth="57" refY="18" refX="39" id="ZERO_OR_MORE_END"><circle r="6" cy="18" cx="9" fill="white" stroke="gray"/><path d="M21,18 Q39,0 57,18 Q39,36 21,18" fill="none" stroke="gray"/></marker></defs><g transform="translate(20,20 )" id="entity-Link-ae3fd858-4e29-4f71-adf1-b2cda7305372"><rect height="178" width="168.703125" y="0" x="0" class="er entityBox"/><text style="dominant-baseline: middle; text-anchor: middle; font-size: 12px;" transform="translate(84.3515625,12)" y="0" x="0" id="text-entity-Link-ae3fd858-4e29-4f71-adf1-b2cda7305372" class="er entityLabel">Link</text><rect height="22" width="37.39605712890625" y="24" x="0" class="er attributeBoxOdd"/><text style="dominant-baseline: middle; font-size: 10.2px;" transform="translate(5,35)" y="0" x="0" id="text-entity-Link-ae3fd858-4e29-4f71-adf1-b2cda7305372-attr-1-type" class="er entityLabel">String</text><rect height="22" width="61.40684509277344" y="24" x="37.39605712890625" class="er attributeBoxOdd"/><text style="dominant-baseline: middle; font-size: 10.2px;" transform="translate(42.39605712890625,35)" y="0" x="0" id="text-entity-Link-ae3fd858-4e29-4f71-adf1-b2cda7305372-attr-1-name" class="er entityLabel">id</text><rect height="22" width="22.68768310546875" y="24" x="98.80290222167969" class="er attributeBoxOdd"/><text style="dominant-baseline: middle; font-size: 10.2px;" transform="translate(103.80290222167969,35)" y="0" x="0" id="text-entity-Link-ae3fd858-4e29-4f71-adf1-b2cda7305372-attr-1-key" class="er entityLabel">PK</text><rect height="22" width="47.21253967285156" y="24" x="121.49058532714844" class="er attributeBoxOdd"/><text style="dominant-baseline: middle; font-size: 10.2px;" transform="translate(126.49058532714844,35)" y="0" x="0" id="text-entity-Link-ae3fd858-4e29-4f71-adf1-b2cda7305372-attr-1-comment" class="er entityLabel"/><rect height="22" width="37.39605712890625" y="46" x="0" class="er attributeBoxEven"/><text style="dominant-baseline: middle; font-size: 10.2px;" transform="translate(5,57)" y="0" x="0" id="text-entity-Link-ae3fd858-4e29-4f71-adf1-b2cda7305372-attr-2-type" class="er entityLabel">String</text><rect height="22" width="61.40684509277344" y="46" x="37.39605712890625" class="er attributeBoxEven"/><text style="dominant-baseline: middle; font-size: 10.2px;" transform="translate(42.39605712890625,57)" y="0" x="0" id="text-entity-Link-ae3fd858-4e29-4f71-adf1-b2cda7305372-attr-2-name" class="er entityLabel">title</text><rect height="22" width="22.68768310546875" y="46" x="98.80290222167969" class="er attributeBoxEven"/><text style="dominant-baseline: middle; font-size: 10.2px;" transform="translate(103.80290222167969,57)" y="0" x="0" id="text-entity-Link-ae3fd858-4e29-4f71-adf1-b2cda7305372-attr-2-key" class="er entityLabel"/><rect height="22" width="47.21253967285156" y="46" x="121.49058532714844" class="er attributeBoxEven"/><text style="dominant-baseline: middle; font-size: 10.2px;" transform="translate(126.49058532714844,57)" y="0" x="0" id="text-entity-Link-ae3fd858-4e29-4f71-adf1-b2cda7305372-attr-2-comment" class="er entityLabel">nullable</text><rect height="22" width="37.39605712890625" y="68" x="0" class="er attributeBoxOdd"/><text style="dominant-baseline: middle; font-size: 10.2px;" transform="translate(5,79)" y="0" x="0" id="text-entity-Link-ae3fd858-4e29-4f71-adf1-b2cda7305372-attr-3-type" class="er entityLabel">String</text><rect height="22" width="61.40684509277344" y="68" x="37.39605712890625" class="er attributeBoxOdd"/><text style="dominant-baseline: middle; font-size: 10.2px;" transform="translate(42.39605712890625,79)" y="0" x="0" id="text-entity-Link-ae3fd858-4e29-4f71-adf1-b2cda7305372-attr-3-name" class="er entityLabel">url</text><rect height="22" width="22.68768310546875" y="68" x="98.80290222167969" class="er attributeBoxOdd"/><text style="dominant-baseline: middle; font-size: 10.2px;" transform="translate(103.80290222167969,79)" y="0" x="0" id="text-entity-Link-ae3fd858-4e29-4f71-adf1-b2cda7305372-attr-3-key" class="er entityLabel"/><rect height="22" width="47.21253967285156" y="68" x="121.49058532714844" class="er attributeBoxOdd"/><text style="dominant-baseline: middle; font-size: 10.2px;" transform="translate(126.49058532714844,79)" y="0" x="0" id="text-entity-Link-ae3fd858-4e29-4f71-adf1-b2cda7305372-attr-3-comment" class="er entityLabel"/><rect height="22" width="37.39605712890625" y="90" x="0" class="er attributeBoxEven"/><text style="dominant-baseline: middle; font-size: 10.2px;" transform="translate(5,101)" y="0" x="0" id="text-entity-Link-ae3fd858-4e29-4f71-adf1-b2cda7305372-attr-4-type" class="er entityLabel">String</text><rect height="22" width="61.40684509277344" y="90" x="37.39605712890625" class="er attributeBoxEven"/><text style="dominant-baseline: middle; font-size: 10.2px;" transform="translate(42.39605712890625,101)" y="0" x="0" id="text-entity-Link-ae3fd858-4e29-4f71-adf1-b2cda7305372-attr-4-name" class="er entityLabel">description</text><rect height="22" width="22.68768310546875" y="90" x="98.80290222167969" class="er attributeBoxEven"/><text style="dominant-baseline: middle; font-size: 10.2px;" transform="translate(103.80290222167969,101)" y="0" x="0" id="text-entity-Link-ae3fd858-4e29-4f71-adf1-b2cda7305372-attr-4-key" class="er entityLabel"/><rect height="22" width="47.21253967285156" y="90" x="121.49058532714844" class="er attributeBoxEven"/><text style="dominant-baseline: middle; font-size: 10.2px;" transform="translate(126.49058532714844,101)" y="0" x="0" id="text-entity-Link-ae3fd858-4e29-4f71-adf1-b2cda7305372-attr-4-comment" class="er entityLabel">nullable</text><rect height="22" width="37.39605712890625" y="112" x="0" class="er attributeBoxOdd"/><text style="dominant-baseline: middle; font-size: 10.2px;" transform="translate(5,123)" y="0" x="0" id="text-entity-Link-ae3fd858-4e29-4f71-adf1-b2cda7305372-attr-5-type" class="er entityLabel">String</text><rect height="22" width="61.40684509277344" y="112" x="37.39605712890625" class="er attributeBoxOdd"/><text style="dominant-baseline: middle; font-size: 10.2px;" transform="translate(42.39605712890625,123)" y="0" x="0" id="text-entity-Link-ae3fd858-4e29-4f71-adf1-b2cda7305372-attr-5-name" class="er entityLabel">name</text><rect height="22" width="22.68768310546875" y="112" x="98.80290222167969" class="er attributeBoxOdd"/><text style="dominant-baseline: middle; font-size: 10.2px;" transform="translate(103.80290222167969,123)" y="0" x="0" id="text-entity-Link-ae3fd858-4e29-4f71-adf1-b2cda7305372-attr-5-key" class="er entityLabel"/><rect height="22" width="47.21253967285156" y="112" x="121.49058532714844" class="er attributeBoxOdd"/><text style="dominant-baseline: middle; font-size: 10.2px;" transform="translate(126.49058532714844,123)" y="0" x="0" id="text-entity-Link-ae3fd858-4e29-4f71-adf1-b2cda7305372-attr-5-comment" class="er entityLabel">nullable</text><rect height="22" width="37.39605712890625" y="134" x="0" class="er attributeBoxEven"/><text style="dominant-baseline: middle; font-size: 10.2px;" transform="translate(5,145)" y="0" x="0" id="text-entity-Link-ae3fd858-4e29-4f71-adf1-b2cda7305372-attr-6-type" class="er entityLabel">String</text><rect height="22" width="61.40684509277344" y="134" x="37.39605712890625" class="er attributeBoxEven"/><text style="dominant-baseline: middle; font-size: 10.2px;" transform="translate(42.39605712890625,145)" y="0" x="0" id="text-entity-Link-ae3fd858-4e29-4f71-adf1-b2cda7305372-attr-6-name" class="er entityLabel">image</text><rect height="22" width="22.68768310546875" y="134" x="98.80290222167969" class="er attributeBoxEven"/><text style="dominant-baseline: middle; font-size: 10.2px;" transform="translate(103.80290222167969,145)" y="0" x="0" id="text-entity-Link-ae3fd858-4e29-4f71-adf1-b2cda7305372-attr-6-key" class="er entityLabel"/><rect height="22" width="47.21253967285156" y="134" x="121.49058532714844" class="er attributeBoxEven"/><text style="dominant-baseline: middle; font-size: 10.2px;" transform="translate(126.49058532714844,145)" y="0" x="0" id="text-entity-Link-ae3fd858-4e29-4f71-adf1-b2cda7305372-attr-6-comment" class="er entityLabel">nullable</text><rect height="22" width="37.39605712890625" y="156" x="0" class="er attributeBoxOdd"/><text style="dominant-baseline: middle; font-size: 10.2px;" transform="translate(5,167)" y="0" x="0" id="text-entity-Link-ae3fd858-4e29-4f71-adf1-b2cda7305372-attr-7-type" class="er entityLabel">String</text><rect height="22" width="61.40684509277344" y="156" x="37.39605712890625" class="er attributeBoxOdd"/><text style="dominant-baseline: middle; font-size: 10.2px;" transform="translate(42.39605712890625,167)" y="0" x="0" id="text-entity-Link-ae3fd858-4e29-4f71-adf1-b2cda7305372-attr-7-name" class="er entityLabel">icon</text><rect height="22" width="22.68768310546875" y="156" x="98.80290222167969" class="er attributeBoxOdd"/><text style="dominant-baseline: middle; font-size: 10.2px;" transform="translate(103.80290222167969,167)" y="0" x="0" id="text-entity-Link-ae3fd858-4e29-4f71-adf1-b2cda7305372-attr-7-key" class="er entityLabel"/><rect height="22" width="47.21253967285156" y="156" x="121.49058532714844" class="er attributeBoxOdd"/><text style="dominant-baseline: middle; font-size: 10.2px;" transform="translate(126.49058532714844,167)" y="0" x="0" id="text-entity-Link-ae3fd858-4e29-4f71-adf1-b2cda7305372-attr-7-comment" class="er entityLabel">nullable</text></g><g transform="translate(288.703125,53 )" id="entity-User-b531805c-1cb2-48a4-b629-6e0f7c62bf2b"><rect height="112" width="159.96815490722656" y="0" x="0" class="er entityBox"/><text style="dominant-baseline: middle; text-anchor: middle; font-size: 12px;" transform="translate(79.98407745361328,12)" y="0" x="0" id="text-entity-User-b531805c-1cb2-48a4-b629-6e0f7c62bf2b" class="er entityLabel">User</text><rect height="22" width="37.39605712890625" y="24" x="0" class="er attributeBoxOdd"/><text style="dominant-baseline: middle; font-size: 10.2px;" transform="translate(5,35)" y="0" x="0" id="text-entity-User-b531805c-1cb2-48a4-b629-6e0f7c62bf2b-attr-1-type" class="er entityLabel">String</text><rect height="22" width="52.671875" y="24" x="37.39605712890625" class="er attributeBoxOdd"/><text style="dominant-baseline: middle; font-size: 10.2px;" transform="translate(42.39605712890625,35)" y="0" x="0" id="text-entity-User-b531805c-1cb2-48a4-b629-6e0f7c62bf2b-attr-1-name" class="er entityLabel">id</text><rect height="22" width="22.68768310546875" y="24" x="90.06793212890625" class="er attributeBoxOdd"/><text style="dominant-baseline: middle; font-size: 10.2px;" transform="translate(95.06793212890625,35)" y="0" x="0" id="text-entity-User-b531805c-1cb2-48a4-b629-6e0f7c62bf2b-attr-1-key" class="er entityLabel">PK</text><rect height="22" width="47.21253967285156" y="24" x="112.755615234375" class="er attributeBoxOdd"/><text style="dominant-baseline: middle; font-size: 10.2px;" transform="translate(117.755615234375,35)" y="0" x="0" id="text-entity-User-b531805c-1cb2-48a4-b629-6e0f7c62bf2b-attr-1-comment" class="er entityLabel"/><rect height="22" width="37.39605712890625" y="46" x="0" class="er attributeBoxEven"/><text style="dominant-baseline: middle; font-size: 10.2px;" transform="translate(5,57)" y="0" x="0" id="text-entity-User-b531805c-1cb2-48a4-b629-6e0f7c62bf2b-attr-2-type" class="er entityLabel">String</text><rect height="22" width="52.671875" y="46" x="37.39605712890625" class="er attributeBoxEven"/><text style="dominant-baseline: middle; font-size: 10.2px;" transform="translate(42.39605712890625,57)" y="0" x="0" id="text-entity-User-b531805c-1cb2-48a4-b629-6e0f7c62bf2b-attr-2-name" class="er entityLabel">name</text><rect height="22" width="22.68768310546875" y="46" x="90.06793212890625" class="er attributeBoxEven"/><text style="dominant-baseline: middle; font-size: 10.2px;" transform="translate(95.06793212890625,57)" y="0" x="0" id="text-entity-User-b531805c-1cb2-48a4-b629-6e0f7c62bf2b-attr-2-key" class="er entityLabel"/><rect height="22" width="47.21253967285156" y="46" x="112.755615234375" class="er attributeBoxEven"/><text style="dominant-baseline: middle; font-size: 10.2px;" transform="translate(117.755615234375,57)" y="0" x="0" id="text-entity-User-b531805c-1cb2-48a4-b629-6e0f7c62bf2b-attr-2-comment" class="er entityLabel"/><rect height="22" width="37.39605712890625" y="68" x="0" class="er attributeBoxOdd"/><text style="dominant-baseline: middle; font-size: 10.2px;" transform="translate(5,79)" y="0" x="0" id="text-entity-User-b531805c-1cb2-48a4-b629-6e0f7c62bf2b-attr-3-type" class="er entityLabel">String</text><rect height="22" width="52.671875" y="68" x="37.39605712890625" class="er attributeBoxOdd"/><text style="dominant-baseline: middle; font-size: 10.2px;" transform="translate(42.39605712890625,79)" y="0" x="0" id="text-entity-User-b531805c-1cb2-48a4-b629-6e0f7c62bf2b-attr-3-name" class="er entityLabel">email</text><rect height="22" width="22.68768310546875" y="68" x="90.06793212890625" class="er attributeBoxOdd"/><text style="dominant-baseline: middle; font-size: 10.2px;" transform="translate(95.06793212890625,79)" y="0" x="0" id="text-entity-User-b531805c-1cb2-48a4-b629-6e0f7c62bf2b-attr-3-key" class="er entityLabel"/><rect height="22" width="47.21253967285156" y="68" x="112.755615234375" class="er attributeBoxOdd"/><text style="dominant-baseline: middle; font-size: 10.2px;" transform="translate(117.755615234375,79)" y="0" x="0" id="text-entity-User-b531805c-1cb2-48a4-b629-6e0f7c62bf2b-attr-3-comment" class="er entityLabel"/><rect height="22" width="37.39605712890625" y="90" x="0" class="er attributeBoxEven"/><text style="dominant-baseline: middle; font-size: 10.2px;" transform="translate(5,101)" y="0" x="0" id="text-entity-User-b531805c-1cb2-48a4-b629-6e0f7c62bf2b-attr-4-type" class="er entityLabel">String</text><rect height="22" width="52.671875" y="90" x="37.39605712890625" class="er attributeBoxEven"/><text style="dominant-baseline: middle; font-size: 10.2px;" transform="translate(42.39605712890625,101)" y="0" x="0" id="text-entity-User-b531805c-1cb2-48a4-b629-6e0f7c62bf2b-attr-4-name" class="er entityLabel">avatarUrl</text><rect height="22" width="22.68768310546875" y="90" x="90.06793212890625" class="er attributeBoxEven"/><text style="dominant-baseline: middle; font-size: 10.2px;" transform="translate(95.06793212890625,101)" y="0" x="0" id="text-entity-User-b531805c-1cb2-48a4-b629-6e0f7c62bf2b-attr-4-key" class="er entityLabel"/><rect height="22" width="47.21253967285156" y="90" x="112.755615234375" class="er attributeBoxEven"/><text style="dominant-baseline: middle; font-size: 10.2px;" transform="translate(117.755615234375,101)" y="0" x="0" id="text-entity-User-b531805c-1cb2-48a4-b629-6e0f7c62bf2b-attr-4-comment" class="er entityLabel">nullable</text></g></svg>